HIERARCHY
ROOT Hips
{
	OFFSET 0.00000 0.00000 0.00000
	CHANNELS 6 Xposition Yposition Zposition Zrotation Yrotation Xrotation 
	JOINT RightUpLegDummy
	{
		OFFSET 0 0 0
		CHANNELS 3 Zrotation Yrotation Xrotation
		JOINT RightUpLeg
		{
			OFFSET -3.52197 -3.41223 0.04002
			CHANNELS 3 Zrotation Yrotation Xrotation
			JOINT RightLeg
			{
				OFFSET 0.00006 -17.42390 1.60435
				CHANNELS 3 Zrotation Yrotation Xrotation
				JOINT RightFoot
				{
					OFFSET 0.06153 -16.50078 -1.63901
					CHANNELS 3 Zrotation Yrotation Xrotation
					JOINT RightToes
					{
						OFFSET 0.00298 -1.73825 3.34613
						CHANNELS 3 Zrotation Yrotation Xrotation
						End Site
						{
							OFFSET 0.00480 -0.05416 3.85043
						}
					}
				}
			}
		}
	}
	JOINT SpineDummy
	{
		OFFSET 0 0 0
		CHANNELS 3 Zrotation Yrotation Xrotation
		JOINT Spine
		{
			OFFSET 0.00000 4.68130 0.00000
			CHANNELS 3 Zrotation Yrotation Xrotation
			JOINT Spine1
			{
				OFFSET -0.00000 10.10138 0.05002
				CHANNELS 3 Zrotation Yrotation Xrotation
				JOINT HEadDummy
				{
					OFFSET 0 0 0
					CHANNELS 3 Zrotation Yrotation Xrotation
					JOINT Head
					{
						OFFSET -0.00000 3.43865 0.00438
						CHANNELS 3 Zrotation Yrotation Xrotation
						End Site
						{
							OFFSET -0.11417 5.02924 0.98962
						}
					}
				}
				JOINT LeftShoulder1Dummy
				{
					OFFSET 0 0 0
					CHANNELS 3 Zrotation Yrotation Xrotation
					JOINT LeftShoulder1
					{
						OFFSET 3.53937 -0.14262 -0.08662
						CHANNELS 3 Zrotation Yrotation Xrotation
						JOINT LeftArm
						{
							OFFSET 4.04833 -0.00133 0.12681
							CHANNELS 3 Zrotation Yrotation Xrotation
							JOINT LeftForeArm
							{
								OFFSET 10.33880 -0.01036 -0.55515
								CHANNELS 3 Zrotation Yrotation Xrotation
								JOINT LeftHand
								{
									OFFSET 8.69677 0.07543 0.40060
									CHANNELS 3 Zrotation Yrotation Xrotation
									End Site
									{
										OFFSET 5.28377 -0.21905 0.59205
									}
								}
							}
						}
					}
				}
				JOINT RightShoulderDummy
				{
					OFFSET 0 0 0
					CHANNELS 3 Zrotation Yrotation Xrotation
					JOINT RightShoulder
					{
						OFFSET -3.53937 -0.14262 -0.08660
						CHANNELS 3 Zrotation Yrotation Xrotation
						JOINT RightArm
						{
							OFFSET -4.04833 -0.00133 0.12683
							CHANNELS 3 Zrotation Yrotation Xrotation
							JOINT RightForeArm
							{
								OFFSET -10.37987 -0.01039 -0.55511
								CHANNELS 3 Zrotation Yrotation Xrotation
								JOINT RightHand
								{
									OFFSET -8.67398 0.07538 0.40058
									CHANNELS 3 Zrotation Yrotation Xrotation
									End Site
									{
										OFFSET -5.24810 -0.21916 0.59204
									}
								}
							}
						}
					}
				}
			}
		}
	}
	JOINT LeftUpLegDummy
	{
		OFFSET 0 0 0
		CHANNELS 3 Zrotation Yrotation Xrotation
		JOINT LeftUpLeg
		{
			OFFSET 3.52197 -3.41223 0.04002
			CHANNELS 3 Zrotation Yrotation Xrotation
			JOINT LeftLeg
			{
				OFFSET -0.00012 -17.42399 1.60337
				CHANNELS 3 Zrotation Yrotation Xrotation
				JOINT LeftFoot
				{
					OFFSET -0.09972 -16.50070 -1.63802
					CHANNELS 3 Zrotation Yrotation Xrotation
					JOINT LeftToes
					{
						OFFSET -0.01575 -1.73823 3.34611
						CHANNELS 3 Zrotation Yrotation Xrotation
						End Site
						{
							OFFSET 0.03150 -0.01868 3.85031
						}
					}
				}
			}
		}
	}
}
MOTION
Frames: 9
Frame Time: 0.033333
44.7920 39.7816 82.2406 -178.9080 4.7156 178.1190 0.0000 0.0000 0.0000 3.7500 -0.2146 0.8779 -0.5947 0.4017 4.4925 -4.1001 0.2708 -3.4271 0.0000 -0.0000 -0.0000 0.0000 0.0000 0.0000 0.2696 -0.1628 -0.0508 3.8354 -0.9830 2.1031 -0.0000 0.0000 -0.0000 -0.5749 4.7132 -2.2981 -0.0000 0.0000 -0.0000 -34.9916 -2.4132 2.4299 -44.2083 -14.1333 -17.6621 -10.4891 5.0750 49.8856 15.8129 -3.2549 -1.1541 -0.0000 0.0000 -0.0000 34.2805 5.0866 3.4700 40.9619 4.8012 -14.8561 11.2722 1.6982 22.7057 -11.1532 1.8318 -0.6786 0.0000 0.0000 0.0000 1.3085 1.7945 1.3409 1.3780 5.8746 6.4691 2.1282 -0.0609 -5.5730 0.0000 0.0000 -0.0000
44.7960 39.7816 82.2406 -178.9090 4.7156 178.1190 0.0000 0.0000 0.0000 3.7648 -0.1973 0.8597 -0.6061 0.3868 4.5097 -4.0418 0.2671 -3.4268 0.0000 -0.0000 -0.0000 0.0000 0.0000 0.0000 0.2527 -0.1500 -0.0383 3.8354 -0.9687 2.0896 -0.0000 0.0000 -0.0000 -0.6470 4.6872 -2.3747 -0.0000 0.0000 -0.0000 -34.9403 -2.4132 2.4299 -44.3054 -14.1383 -17.6217 -10.4841 5.0761 49.8517 15.6593 -3.3651 -1.1565 -0.0000 0.0000 -0.0000 34.3355 5.0866 3.4700 40.9296 4.7629 -14.9325 11.2720 1.5963 22.2972 -11.9575 0.4591 -0.5944 0.0000 0.0000 0.0000 1.2917 1.7562 1.3071 1.4345 5.8972 6.5198 2.1307 -0.0611 -5.5730 0.0000 0.0000 -0.0000
44.8008 39.7816 82.2398 -178.9180 4.7171 178.1150 0.0000 0.0000 0.0000 3.7577 -0.2090 0.8646 -0.5970 0.3958 4.5078 -4.0445 0.2673 -3.4269 0.0000 -0.0000 -0.0000 0.0000 0.0000 0.0000 0.2195 -0.1405 -0.0158 3.8424 -0.9577 2.0743 -0.0000 0.0000 -0.0000 -0.7499 4.8132 -2.5585 -0.0000 0.0000 -0.0000 -34.9154 -2.4106 2.4299 -44.4216 -14.0988 -17.3946 -10.5812 5.0797 49.6918 15.3270 -3.6270 -1.1639 -0.0000 0.0000 -0.0000 34.3688 5.0840 3.4669 40.9131 4.6962 -15.0428 11.2830 1.4435 21.4922 -13.4681 -1.9104 -0.4161 0.0000 0.0000 0.0000 1.3066 1.7900 1.3132 1.3905 5.8622 6.5210 2.2091 -0.0662 -5.5662 0.0000 0.0000 -0.0000
44.8033 39.7816 82.2349 -178.9510 4.7402 178.0780 0.0000 0.0000 0.0000 3.7131 -0.2626 0.9215 -0.5620 0.4581 4.4824 -4.1270 0.2726 -3.4272 0.0000 -0.0000 -0.0000 0.0000 0.0000 0.0000 0.1735 -0.1692 0.0157 3.9168 -0.9999 2.0636 -0.0000 0.0000 -0.0000 -0.8698 5.1907 -2.7718 -0.0000 0.0000 -0.0000 -35.0958 -2.3941 2.4299 -44.3644 -14.0217 -17.0297 -10.8119 5.0879 49.3205 15.1430 -3.8454 -1.1765 -0.0000 0.0000 -0.0000 34.2029 5.0687 3.4474 41.0296 4.7396 -15.1427 11.2678 1.2278 21.1577 -14.3486 -3.1696 -0.2963 0.0000 0.0000 0.0000 1.3341 1.8806 1.4001 1.2615 5.8085 6.4461 2.3056 -0.0724 -5.5493 0.0000 0.0000 -0.0000
44.8040 39.7816 82.2269 -178.9860 4.8039 178.0280 0.0000 0.0000 0.0000 3.6643 -0.3151 0.9886 -0.5266 0.5632 4.4724 -4.1915 0.2767 -3.4292 0.0000 -0.0000 -0.0000 0.0000 0.0000 0.0000 0.1322 -0.2233 0.0404 4.0515 -1.0810 2.0534 -0.0000 0.0000 -0.0000 -1.1021 5.5588 -2.9048 -0.0000 0.0000 -0.0000 -35.4039 -2.3583 2.4299 -44.1936 -14.0148 -16.7138 -11.0708 5.0996 48.8143 15.3002 -3.7255 -1.1740 -0.0000 0.0000 -0.0000 33.8897 5.0401 3.4089 41.2345 4.9312 -15.2340 11.2056 0.9223 21.7449 -13.9622 -2.5697 -0.3544 0.0000 0.0000 0.0000 1.3020 1.8796 1.5039 1.2547 5.8802 6.3821 2.3112 -0.0727 -5.5362 0.0000 0.0000 -0.0000
44.8053 39.7816 82.2175 -179.0100 4.9136 177.9970 0.0000 0.0000 0.0000 3.6357 -0.3399 1.0215 -0.5027 0.6958 4.4946 -4.1936 0.2769 -3.4382 0.0000 -0.0000 -0.0000 0.0000 0.0000 0.0000 0.1200 -0.2557 0.0285 4.1184 -1.1284 2.0711 -0.0000 0.0000 -0.0000 -1.4461 5.6468 -2.9657 -0.0000 0.0000 -0.0000 -35.5283 -2.3260 2.4245 -44.1778 -14.1311 -16.5625 -11.2114 5.1075 48.4803 15.5708 -3.3137 -1.1432 -0.0000 0.0000 -0.0000 33.7168 5.0263 3.3885 41.3221 5.1325 -15.3112 11.1409 0.6474 22.6364 -13.0587 -1.2793 -0.4704 0.0000 0.0000 0.0000 1.2027 1.7527 1.5736 1.4249 6.1060 6.3645 2.2219 -0.0670 -5.5264 0.0000 0.0000 -0.0000
44.8100 39.7816 82.2080 -179.0380 5.0793 177.9630 0.0000 0.0000 0.0000 3.6135 -0.3504 1.0478 -0.4848 0.8683 4.5294 -4.1843 0.2763 -3.4561 0.0000 -0.0000 -0.0000 0.0000 0.0000 0.0000 0.1164 -0.2489 -0.0187 4.0638 -1.1137 2.1757 -0.0000 0.0000 -0.0000 -1.7039 5.5648 -3.0725 -0.0000 0.0000 -0.0000 -35.3675 -2.3037 2.4057 -44.3946 -14.2796 -16.5454 -11.1873 5.1074 48.4943 15.6069 -2.9731 -1.1026 -0.0000 0.0000 -0.0000 33.7886 5.0372 3.3990 41.2239 5.2719 -15.3966 11.1035 0.4881 23.0768 -12.4969 -0.4874 -0.5303 0.0000 0.0000 0.0000 1.1053 1.6332 1.6666 1.5938 6.3720 6.3221 2.1214 -0.0605 -5.5102 0.0000 0.0000 -0.0000
44.8187 39.7816 82.1998 -179.0810 5.3008 177.8970 0.0000 0.0000 0.0000 3.5892 -0.3531 1.1057 -0.4753 1.0791 4.5613 -4.2064 0.2778 -3.4754 0.0000 -0.0000 -0.0000 0.0000 0.0000 0.0000 0.0594 -0.2162 -0.0790 4.0366 -1.0787 2.3784 -0.0000 0.0000 -0.0000 -1.7150 5.5428 -3.2493 -0.0000 0.0000 -0.0000 -35.1925 -2.2959 2.3921 -44.6048 -14.3682 -16.5756 -11.0925 5.1046 48.6348 15.4052 -2.8570 -1.0731 -0.0000 0.0000 -0.0000 33.8504 5.0475 3.4084 41.1220 5.4514 -15.5722 11.0502 0.3092 23.1162 -12.3106 -0.1828 -0.5522 0.0000 0.0000 0.0000 1.0580 1.6146 1.8299 1.6382 6.5982 6.2194 2.0656 -0.0569 -5.4893 0.0000 0.0000 -0.0000
44.8274 39.7816 82.1952 -179.1080 5.5218 177.8410 0.0000 0.0000 0.0000 3.5897 -0.3288 1.1495 -0.4806 1.2631 4.5906 -4.2369 0.2798 -3.4846 0.0000 -0.0000 -0.0000 0.0000 0.0000 0.0000 -0.0657 -0.1323 -0.1033 4.1702 -1.0179 2.5087 -0.0000 0.0000 -0.0000 -1.5520 5.4572 -3.3537 -0.0000 0.0000 -0.0000 -35.1984 -2.3491 2.4144 -44.6364 -14.4299 -16.5852 -11.0447 5.1039 48.6776 15.2588 -2.7812 -1.0531 -0.0000 0.0000 -0.0000 33.7629 5.0290 3.3935 41.1042 5.5818 -15.8330 10.9673 0.1009 23.0882 -12.2800 -0.0745 -0.5615 0.0000 0.0000 0.0000 1.0515 1.6418 1.9612 1.6381 6.7873 6.1477 2.0538 -0.0562 -5.4835 0.0000 0.0000 -0.0000
